<mxfile host="app.diagrams.net" modified="2023-11-08T15:13:38.035Z" agent="Mozilla/5.0 (Windows NT 10.0; Win64; x64) AppleWebKit/537.36 (KHTML, like Gecko) Chrome/119.0.0.0 Safari/537.36" etag="MHc0LpzBB1fANxvM7BaM" version="22.0.8" type="device">
  <diagram name="Trang-1" id="R2SSgekKrFJc0sKT6GDx">
    <mxGraphModel dx="311" dy="168" grid="1" gridSize="10" guides="1" tooltips="1" connect="1" arrows="1" fold="1" page="1" pageScale="1" pageWidth="827" pageHeight="1169" math="0" shadow="0">
      <root>
        <mxCell id="0" />
        <mxCell id="1" parent="0" />
        <mxCell id="ekgqlXPSo2zlpU3kf7QV-1" value="Người dùng" style="shape=umlActor;verticalLabelPosition=bottom;verticalAlign=top;html=1;outlineConnect=0;fontFamily=Times New Roman;fontSize=14;" vertex="1" parent="1">
          <mxGeometry x="70" y="50" width="20" height="40" as="geometry" />
        </mxCell>
        <mxCell id="ekgqlXPSo2zlpU3kf7QV-2" value="Quản lý phòng trọ" style="rounded=0;whiteSpace=wrap;html=1;fontFamily=Times New Roman;fontSize=14;" vertex="1" parent="1">
          <mxGeometry x="220" y="50" width="120" height="60" as="geometry" />
        </mxCell>
        <mxCell id="ekgqlXPSo2zlpU3kf7QV-3" value="Máy chủ" style="rounded=0;whiteSpace=wrap;html=1;fontFamily=Times New Roman;fontSize=14;" vertex="1" parent="1">
          <mxGeometry x="440" y="50" width="120" height="60" as="geometry" />
        </mxCell>
        <mxCell id="ekgqlXPSo2zlpU3kf7QV-4" value="Dữ liệu phòng trọ" style="rounded=0;whiteSpace=wrap;html=1;fontFamily=Times New Roman;fontSize=14;" vertex="1" parent="1">
          <mxGeometry x="640" y="50" width="120" height="60" as="geometry" />
        </mxCell>
        <mxCell id="ekgqlXPSo2zlpU3kf7QV-6" value="" style="endArrow=none;dashed=1;html=1;rounded=0;entryX=0.5;entryY=1;entryDx=0;entryDy=0;fontFamily=Times New Roman;fontSize=14;" edge="1" parent="1" source="ekgqlXPSo2zlpU3kf7QV-12" target="ekgqlXPSo2zlpU3kf7QV-2">
          <mxGeometry width="50" height="50" relative="1" as="geometry">
            <mxPoint x="280" y="831.3912963867188" as="sourcePoint" />
            <mxPoint x="490" y="170" as="targetPoint" />
          </mxGeometry>
        </mxCell>
        <mxCell id="ekgqlXPSo2zlpU3kf7QV-7" value="" style="endArrow=none;dashed=1;html=1;rounded=0;entryX=0.5;entryY=1;entryDx=0;entryDy=0;fontFamily=Times New Roman;fontSize=14;" edge="1" parent="1" source="ekgqlXPSo2zlpU3kf7QV-62">
          <mxGeometry width="50" height="50" relative="1" as="geometry">
            <mxPoint x="499.9329411764704" y="610" as="sourcePoint" />
            <mxPoint x="499.58000000000004" y="110" as="targetPoint" />
          </mxGeometry>
        </mxCell>
        <mxCell id="ekgqlXPSo2zlpU3kf7QV-8" value="" style="endArrow=none;dashed=1;html=1;rounded=0;entryX=0.5;entryY=1;entryDx=0;entryDy=0;fontFamily=Times New Roman;fontSize=14;" edge="1" parent="1" source="ekgqlXPSo2zlpU3kf7QV-95">
          <mxGeometry width="50" height="50" relative="1" as="geometry">
            <mxPoint x="700" y="1213.339111328125" as="sourcePoint" />
            <mxPoint x="700" y="110" as="targetPoint" />
          </mxGeometry>
        </mxCell>
        <mxCell id="ekgqlXPSo2zlpU3kf7QV-9" value="" style="endArrow=classic;html=1;rounded=0;fontFamily=Times New Roman;fontSize=14;exitX=0.975;exitY=0.087;exitDx=0;exitDy=0;exitPerimeter=0;" edge="1" parent="1">
          <mxGeometry width="50" height="50" relative="1" as="geometry">
            <mxPoint x="79.75" y="200.89999999999998" as="sourcePoint" />
            <mxPoint x="280" y="200" as="targetPoint" />
          </mxGeometry>
        </mxCell>
        <mxCell id="ekgqlXPSo2zlpU3kf7QV-10" value="1. Yêu cầu tạo phòng mới" style="text;html=1;strokeColor=none;fillColor=none;align=center;verticalAlign=middle;whiteSpace=wrap;rounded=0;fontFamily=Times New Roman;fontSize=14;" vertex="1" parent="1">
          <mxGeometry x="109" y="186" width="150" height="10" as="geometry" />
        </mxCell>
        <mxCell id="ekgqlXPSo2zlpU3kf7QV-11" value="" style="endArrow=none;dashed=1;html=1;rounded=0;entryX=0.5;entryY=1;entryDx=0;entryDy=0;fontFamily=Times New Roman;fontSize=14;" edge="1" parent="1" source="ekgqlXPSo2zlpU3kf7QV-57" target="ekgqlXPSo2zlpU3kf7QV-12">
          <mxGeometry width="50" height="50" relative="1" as="geometry">
            <mxPoint x="280" y="831.3912963867188" as="sourcePoint" />
            <mxPoint x="280" y="110" as="targetPoint" />
          </mxGeometry>
        </mxCell>
        <mxCell id="ekgqlXPSo2zlpU3kf7QV-12" value="" style="rounded=0;whiteSpace=wrap;html=1;fontFamily=Times New Roman;fontSize=14;" vertex="1" parent="1">
          <mxGeometry x="275" y="200" width="10" height="60" as="geometry" />
        </mxCell>
        <mxCell id="ekgqlXPSo2zlpU3kf7QV-16" value="5. Kiểm tra dữ liệu thêm mới" style="text;html=1;strokeColor=none;fillColor=none;align=center;verticalAlign=middle;whiteSpace=wrap;rounded=0;fontFamily=Times New Roman;fontSize=14;" vertex="1" parent="1">
          <mxGeometry x="570" y="360.25" width="60" height="90" as="geometry" />
        </mxCell>
        <mxCell id="ekgqlXPSo2zlpU3kf7QV-18" value="" style="endArrow=classic;html=1;rounded=0;exitX=0.995;exitY=0.095;exitDx=0;exitDy=0;exitPerimeter=0;fontFamily=Times New Roman;fontSize=14;" edge="1" parent="1">
          <mxGeometry width="50" height="50" relative="1" as="geometry">
            <mxPoint x="504.95000000000005" y="376.19999999999993" as="sourcePoint" />
            <mxPoint x="505" y="461" as="targetPoint" />
            <Array as="points">
              <mxPoint x="560" y="376" />
              <mxPoint x="560" y="461" />
            </Array>
          </mxGeometry>
        </mxCell>
        <mxCell id="ekgqlXPSo2zlpU3kf7QV-46" value="" style="endArrow=classic;html=1;rounded=0;exitX=0;exitY=1;exitDx=0;exitDy=0;fontFamily=Times New Roman;fontSize=14;entryX=1;entryY=0;entryDx=0;entryDy=0;" edge="1" parent="1" source="ekgqlXPSo2zlpU3kf7QV-12">
          <mxGeometry width="50" height="50" relative="1" as="geometry">
            <mxPoint x="125" y="289.17" as="sourcePoint" />
            <mxPoint x="85" y="260" as="targetPoint" />
          </mxGeometry>
        </mxCell>
        <mxCell id="ekgqlXPSo2zlpU3kf7QV-47" value="2. Giao diện thêm mới" style="text;html=1;strokeColor=none;fillColor=none;align=center;verticalAlign=middle;whiteSpace=wrap;rounded=0;fontFamily=Times New Roman;fontSize=14;" vertex="1" parent="1">
          <mxGeometry x="120" y="247" width="140" height="10" as="geometry" />
        </mxCell>
        <mxCell id="ekgqlXPSo2zlpU3kf7QV-49" value="" style="endArrow=none;dashed=1;html=1;rounded=0;entryX=0.5;entryY=1;entryDx=0;entryDy=0;fontFamily=Times New Roman;fontSize=14;" edge="1" parent="1">
          <mxGeometry width="50" height="50" relative="1" as="geometry">
            <mxPoint x="79.97176470588238" y="260" as="sourcePoint" />
            <mxPoint x="79.76" y="110" as="targetPoint" />
          </mxGeometry>
        </mxCell>
        <mxCell id="ekgqlXPSo2zlpU3kf7QV-51" value="" style="endArrow=none;dashed=1;html=1;rounded=0;entryX=0.5;entryY=1;entryDx=0;entryDy=0;fontFamily=Times New Roman;fontSize=14;" edge="1" parent="1" source="ekgqlXPSo2zlpU3kf7QV-111">
          <mxGeometry width="50" height="50" relative="1" as="geometry">
            <mxPoint x="76" y="1350" as="sourcePoint" />
            <mxPoint x="80" y="300" as="targetPoint" />
          </mxGeometry>
        </mxCell>
        <mxCell id="ekgqlXPSo2zlpU3kf7QV-54" value="" style="endArrow=classic;html=1;rounded=0;fontFamily=Times New Roman;fontSize=14;exitX=0.975;exitY=0.087;exitDx=0;exitDy=0;exitPerimeter=0;" edge="1" parent="1">
          <mxGeometry width="50" height="50" relative="1" as="geometry">
            <mxPoint x="80" y="320" as="sourcePoint" />
            <mxPoint x="280.25" y="319.1" as="targetPoint" />
          </mxGeometry>
        </mxCell>
        <mxCell id="ekgqlXPSo2zlpU3kf7QV-55" value="3. Thông tin phòng trọ" style="text;html=1;strokeColor=none;fillColor=none;align=center;verticalAlign=middle;whiteSpace=wrap;rounded=0;fontFamily=Times New Roman;fontSize=14;" vertex="1" parent="1">
          <mxGeometry x="114.25" y="305.1" width="150" height="10" as="geometry" />
        </mxCell>
        <mxCell id="ekgqlXPSo2zlpU3kf7QV-56" value="" style="rounded=0;whiteSpace=wrap;html=1;fontFamily=Times New Roman;fontSize=14;" vertex="1" parent="1">
          <mxGeometry x="75" y="260.1" width="10" height="60" as="geometry" />
        </mxCell>
        <mxCell id="ekgqlXPSo2zlpU3kf7QV-58" value="" style="endArrow=none;dashed=1;html=1;rounded=0;entryX=0.5;entryY=1;entryDx=0;entryDy=0;fontFamily=Times New Roman;fontSize=14;" edge="1" parent="1" source="ekgqlXPSo2zlpU3kf7QV-79" target="ekgqlXPSo2zlpU3kf7QV-57">
          <mxGeometry width="50" height="50" relative="1" as="geometry">
            <mxPoint x="280" y="730" as="sourcePoint" />
            <mxPoint x="280" y="260" as="targetPoint" />
          </mxGeometry>
        </mxCell>
        <mxCell id="ekgqlXPSo2zlpU3kf7QV-57" value="" style="rounded=0;whiteSpace=wrap;html=1;fontFamily=Times New Roman;fontSize=14;" vertex="1" parent="1">
          <mxGeometry x="275" y="320.1" width="10" height="60" as="geometry" />
        </mxCell>
        <mxCell id="ekgqlXPSo2zlpU3kf7QV-60" value="" style="endArrow=classic;html=1;rounded=0;fontFamily=Times New Roman;fontSize=14;exitX=0.75;exitY=1;exitDx=0;exitDy=0;" edge="1" parent="1" source="ekgqlXPSo2zlpU3kf7QV-57">
          <mxGeometry width="50" height="50" relative="1" as="geometry">
            <mxPoint x="289.75" y="380.1" as="sourcePoint" />
            <mxPoint x="494" y="380" as="targetPoint" />
          </mxGeometry>
        </mxCell>
        <mxCell id="ekgqlXPSo2zlpU3kf7QV-61" value="4. Yêu cầu tạo phòng" style="text;html=1;strokeColor=none;fillColor=none;align=center;verticalAlign=middle;whiteSpace=wrap;rounded=0;fontFamily=Times New Roman;fontSize=14;" vertex="1" parent="1">
          <mxGeometry x="324" y="365.20000000000005" width="150" height="10" as="geometry" />
        </mxCell>
        <mxCell id="ekgqlXPSo2zlpU3kf7QV-63" value="" style="endArrow=none;dashed=1;html=1;rounded=0;entryX=0.5;entryY=1;entryDx=0;entryDy=0;fontFamily=Times New Roman;fontSize=14;" edge="1" parent="1" source="ekgqlXPSo2zlpU3kf7QV-90" target="ekgqlXPSo2zlpU3kf7QV-62">
          <mxGeometry width="50" height="50" relative="1" as="geometry">
            <mxPoint x="500" y="1000" as="sourcePoint" />
            <mxPoint x="499.58000000000004" y="110" as="targetPoint" />
          </mxGeometry>
        </mxCell>
        <mxCell id="ekgqlXPSo2zlpU3kf7QV-62" value="" style="rounded=0;whiteSpace=wrap;html=1;fontFamily=Times New Roman;fontSize=14;" vertex="1" parent="1">
          <mxGeometry x="495" y="375.2" width="10" height="144.8" as="geometry" />
        </mxCell>
        <mxCell id="ekgqlXPSo2zlpU3kf7QV-64" value="" style="endArrow=classic;html=1;rounded=0;fontFamily=Times New Roman;fontSize=14;exitX=0.75;exitY=1;exitDx=0;exitDy=0;" edge="1" parent="1">
          <mxGeometry width="50" height="50" relative="1" as="geometry">
            <mxPoint x="505" y="519" as="sourcePoint" />
            <mxPoint x="700" y="520" as="targetPoint" />
          </mxGeometry>
        </mxCell>
        <mxCell id="ekgqlXPSo2zlpU3kf7QV-65" value="6. Yêu cầu thêm mới dữ liệu" style="text;html=1;strokeColor=none;fillColor=none;align=center;verticalAlign=middle;whiteSpace=wrap;rounded=0;fontFamily=Times New Roman;fontSize=14;" vertex="1" parent="1">
          <mxGeometry x="520" y="504.2" width="176" height="10" as="geometry" />
        </mxCell>
        <mxCell id="ekgqlXPSo2zlpU3kf7QV-66" value="" style="rounded=0;whiteSpace=wrap;html=1;fontFamily=Times New Roman;fontSize=14;" vertex="1" parent="1">
          <mxGeometry x="695" y="520" width="10" height="70" as="geometry" />
        </mxCell>
        <mxCell id="ekgqlXPSo2zlpU3kf7QV-67" value="" style="endArrow=classic;html=1;rounded=0;exitX=0.25;exitY=1;exitDx=0;exitDy=0;dashed=1;" edge="1" parent="1" source="ekgqlXPSo2zlpU3kf7QV-66">
          <mxGeometry width="50" height="50" relative="1" as="geometry">
            <mxPoint x="430" y="580" as="sourcePoint" />
            <mxPoint x="500" y="590" as="targetPoint" />
          </mxGeometry>
        </mxCell>
        <mxCell id="ekgqlXPSo2zlpU3kf7QV-69" value="" style="endArrow=none;dashed=1;html=1;rounded=0;entryX=0.5;entryY=1;entryDx=0;entryDy=0;fontFamily=Times New Roman;fontSize=14;" edge="1" parent="1" target="ekgqlXPSo2zlpU3kf7QV-68">
          <mxGeometry width="50" height="50" relative="1" as="geometry">
            <mxPoint x="499.9329411764704" y="610" as="sourcePoint" />
            <mxPoint x="500" y="520" as="targetPoint" />
          </mxGeometry>
        </mxCell>
        <mxCell id="ekgqlXPSo2zlpU3kf7QV-68" value="" style="rounded=0;whiteSpace=wrap;html=1;fontFamily=Times New Roman;fontSize=14;" vertex="1" parent="1">
          <mxGeometry x="495" y="590" width="10" height="60" as="geometry" />
        </mxCell>
        <mxCell id="ekgqlXPSo2zlpU3kf7QV-70" value="7. Kết quả thêm mới" style="text;html=1;strokeColor=none;fillColor=none;align=center;verticalAlign=middle;whiteSpace=wrap;rounded=0;fontFamily=Times New Roman;fontSize=14;" vertex="1" parent="1">
          <mxGeometry x="519" y="575" width="176" height="10" as="geometry" />
        </mxCell>
        <mxCell id="ekgqlXPSo2zlpU3kf7QV-77" value="" style="endArrow=classic;html=1;rounded=0;exitX=0.25;exitY=1;exitDx=0;exitDy=0;dashed=1;entryX=1.033;entryY=0.107;entryDx=0;entryDy=0;entryPerimeter=0;" edge="1" parent="1" target="ekgqlXPSo2zlpU3kf7QV-79">
          <mxGeometry width="50" height="50" relative="1" as="geometry">
            <mxPoint x="495" y="649.17" as="sourcePoint" />
            <mxPoint x="297" y="649.17" as="targetPoint" />
          </mxGeometry>
        </mxCell>
        <mxCell id="ekgqlXPSo2zlpU3kf7QV-78" value="8. Kết quả thêm mới" style="text;html=1;strokeColor=none;fillColor=none;align=center;verticalAlign=middle;whiteSpace=wrap;rounded=0;fontFamily=Times New Roman;fontSize=14;" vertex="1" parent="1">
          <mxGeometry x="316" y="634.17" width="176" height="10" as="geometry" />
        </mxCell>
        <mxCell id="ekgqlXPSo2zlpU3kf7QV-82" value="" style="endArrow=none;dashed=1;html=1;rounded=0;entryX=0.5;entryY=1;entryDx=0;entryDy=0;fontFamily=Times New Roman;fontSize=14;" edge="1" parent="1" target="ekgqlXPSo2zlpU3kf7QV-79">
          <mxGeometry width="50" height="50" relative="1" as="geometry">
            <mxPoint x="280" y="1310" as="sourcePoint" />
            <mxPoint x="280" y="380" as="targetPoint" />
          </mxGeometry>
        </mxCell>
        <mxCell id="ekgqlXPSo2zlpU3kf7QV-79" value="" style="rounded=0;whiteSpace=wrap;html=1;fontFamily=Times New Roman;fontSize=14;" vertex="1" parent="1">
          <mxGeometry x="275" y="644.17" width="10" height="60" as="geometry" />
        </mxCell>
        <mxCell id="ekgqlXPSo2zlpU3kf7QV-83" value="" style="endArrow=classic;html=1;rounded=0;exitX=0.25;exitY=1;exitDx=0;exitDy=0;dashed=1;" edge="1" parent="1">
          <mxGeometry width="50" height="50" relative="1" as="geometry">
            <mxPoint x="275" y="702.3399999999999" as="sourcePoint" />
            <mxPoint x="80" y="704" as="targetPoint" />
          </mxGeometry>
        </mxCell>
        <mxCell id="ekgqlXPSo2zlpU3kf7QV-84" value="9. Kết quả thêm mới" style="text;html=1;strokeColor=none;fillColor=none;align=center;verticalAlign=middle;whiteSpace=wrap;rounded=0;fontFamily=Times New Roman;fontSize=14;" vertex="1" parent="1">
          <mxGeometry x="96" y="687.3399999999999" width="176" height="10" as="geometry" />
        </mxCell>
        <mxCell id="ekgqlXPSo2zlpU3kf7QV-85" value="" style="endArrow=classic;html=1;rounded=0;fontFamily=Times New Roman;fontSize=14;exitX=0.975;exitY=0.087;exitDx=0;exitDy=0;exitPerimeter=0;" edge="1" parent="1">
          <mxGeometry width="50" height="50" relative="1" as="geometry">
            <mxPoint x="79.75" y="810.9" as="sourcePoint" />
            <mxPoint x="280" y="810" as="targetPoint" />
          </mxGeometry>
        </mxCell>
        <mxCell id="ekgqlXPSo2zlpU3kf7QV-86" value="1. Yêu cầu cập nhật" style="text;html=1;strokeColor=none;fillColor=none;align=center;verticalAlign=middle;whiteSpace=wrap;rounded=0;fontFamily=Times New Roman;fontSize=14;" vertex="1" parent="1">
          <mxGeometry x="109" y="796" width="150" height="10" as="geometry" />
        </mxCell>
        <mxCell id="ekgqlXPSo2zlpU3kf7QV-87" value="" style="rounded=0;whiteSpace=wrap;html=1;fontFamily=Times New Roman;fontSize=14;" vertex="1" parent="1">
          <mxGeometry x="275" y="810" width="10" height="60" as="geometry" />
        </mxCell>
        <mxCell id="ekgqlXPSo2zlpU3kf7QV-88" value="" style="endArrow=classic;html=1;rounded=0;fontFamily=Times New Roman;fontSize=14;exitX=0.75;exitY=1;exitDx=0;exitDy=0;" edge="1" parent="1">
          <mxGeometry width="50" height="50" relative="1" as="geometry">
            <mxPoint x="285" y="869" as="sourcePoint" />
            <mxPoint x="496" y="869" as="targetPoint" />
          </mxGeometry>
        </mxCell>
        <mxCell id="ekgqlXPSo2zlpU3kf7QV-89" value="2. Lấy dữ liệu phòng" style="text;html=1;strokeColor=none;fillColor=none;align=center;verticalAlign=middle;whiteSpace=wrap;rounded=0;fontFamily=Times New Roman;fontSize=14;" vertex="1" parent="1">
          <mxGeometry x="326" y="854.2" width="150" height="10" as="geometry" />
        </mxCell>
        <mxCell id="ekgqlXPSo2zlpU3kf7QV-91" value="" style="endArrow=none;dashed=1;html=1;rounded=0;entryX=0.5;entryY=1;entryDx=0;entryDy=0;fontFamily=Times New Roman;fontSize=14;" edge="1" parent="1" target="ekgqlXPSo2zlpU3kf7QV-90">
          <mxGeometry width="50" height="50" relative="1" as="geometry">
            <mxPoint x="500" y="1000" as="sourcePoint" />
            <mxPoint x="500" y="520" as="targetPoint" />
          </mxGeometry>
        </mxCell>
        <mxCell id="ekgqlXPSo2zlpU3kf7QV-90" value="" style="rounded=0;whiteSpace=wrap;html=1;fontFamily=Times New Roman;fontSize=14;" vertex="1" parent="1">
          <mxGeometry x="495" y="870" width="10" height="60" as="geometry" />
        </mxCell>
        <mxCell id="ekgqlXPSo2zlpU3kf7QV-92" value="" style="endArrow=classic;html=1;rounded=0;fontFamily=Times New Roman;fontSize=14;exitX=0.75;exitY=1;exitDx=0;exitDy=0;" edge="1" parent="1">
          <mxGeometry width="50" height="50" relative="1" as="geometry">
            <mxPoint x="505" y="929" as="sourcePoint" />
            <mxPoint x="700" y="930" as="targetPoint" />
          </mxGeometry>
        </mxCell>
        <mxCell id="ekgqlXPSo2zlpU3kf7QV-93" value="3. Dữ liệu phòng" style="text;html=1;strokeColor=none;fillColor=none;align=center;verticalAlign=middle;whiteSpace=wrap;rounded=0;fontFamily=Times New Roman;fontSize=14;" vertex="1" parent="1">
          <mxGeometry x="546" y="914.2" width="150" height="10" as="geometry" />
        </mxCell>
        <mxCell id="ekgqlXPSo2zlpU3kf7QV-97" value="" style="endArrow=none;dashed=1;html=1;rounded=0;entryX=0.5;entryY=1;entryDx=0;entryDy=0;fontFamily=Times New Roman;fontSize=14;" edge="1" parent="1" target="ekgqlXPSo2zlpU3kf7QV-95">
          <mxGeometry width="50" height="50" relative="1" as="geometry">
            <mxPoint x="700" y="1213.339111328125" as="sourcePoint" />
            <mxPoint x="700" y="110" as="targetPoint" />
          </mxGeometry>
        </mxCell>
        <mxCell id="ekgqlXPSo2zlpU3kf7QV-95" value="" style="rounded=0;whiteSpace=wrap;html=1;fontFamily=Times New Roman;fontSize=14;" vertex="1" parent="1">
          <mxGeometry x="696" y="930" width="10" height="60" as="geometry" />
        </mxCell>
        <mxCell id="ekgqlXPSo2zlpU3kf7QV-98" value="" style="endArrow=classic;html=1;rounded=0;exitX=0.25;exitY=1;exitDx=0;exitDy=0;dashed=1;entryX=1.279;entryY=-0.002;entryDx=0;entryDy=0;entryPerimeter=0;" edge="1" parent="1" target="ekgqlXPSo2zlpU3kf7QV-100">
          <mxGeometry width="50" height="50" relative="1" as="geometry">
            <mxPoint x="696" y="989.6700000000001" as="sourcePoint" />
            <mxPoint x="498" y="989.6700000000001" as="targetPoint" />
          </mxGeometry>
        </mxCell>
        <mxCell id="ekgqlXPSo2zlpU3kf7QV-99" value="4. Dữ liệu phòng" style="text;html=1;strokeColor=none;fillColor=none;align=center;verticalAlign=middle;whiteSpace=wrap;rounded=0;fontFamily=Times New Roman;fontSize=14;" vertex="1" parent="1">
          <mxGeometry x="517" y="974.6700000000001" width="176" height="10" as="geometry" />
        </mxCell>
        <mxCell id="ekgqlXPSo2zlpU3kf7QV-100" value="" style="rounded=0;whiteSpace=wrap;html=1;fontFamily=Times New Roman;fontSize=14;" vertex="1" parent="1">
          <mxGeometry x="495" y="990" width="10" height="60" as="geometry" />
        </mxCell>
        <mxCell id="ekgqlXPSo2zlpU3kf7QV-102" value="" style="endArrow=classic;html=1;rounded=0;exitX=0.25;exitY=1;exitDx=0;exitDy=0;dashed=1;entryX=1.003;entryY=0.081;entryDx=0;entryDy=0;entryPerimeter=0;" edge="1" parent="1" target="ekgqlXPSo2zlpU3kf7QV-104">
          <mxGeometry width="50" height="50" relative="1" as="geometry">
            <mxPoint x="495" y="1049.52" as="sourcePoint" />
            <mxPoint x="290" y="1050" as="targetPoint" />
          </mxGeometry>
        </mxCell>
        <mxCell id="ekgqlXPSo2zlpU3kf7QV-103" value="5. Dữ liệu phòng" style="text;html=1;strokeColor=none;fillColor=none;align=center;verticalAlign=middle;whiteSpace=wrap;rounded=0;fontFamily=Times New Roman;fontSize=14;" vertex="1" parent="1">
          <mxGeometry x="316" y="1034.52" width="176" height="10" as="geometry" />
        </mxCell>
        <mxCell id="ekgqlXPSo2zlpU3kf7QV-104" value="" style="rounded=0;whiteSpace=wrap;html=1;fontFamily=Times New Roman;fontSize=14;" vertex="1" parent="1">
          <mxGeometry x="275" y="1030" width="10" height="250" as="geometry" />
        </mxCell>
        <mxCell id="ekgqlXPSo2zlpU3kf7QV-106" value="6. Xử lý dữ liệu" style="text;html=1;strokeColor=none;fillColor=none;align=center;verticalAlign=middle;whiteSpace=wrap;rounded=0;fontFamily=Times New Roman;fontSize=14;" vertex="1" parent="1">
          <mxGeometry x="349.04999999999995" y="1060" width="60" height="90" as="geometry" />
        </mxCell>
        <mxCell id="ekgqlXPSo2zlpU3kf7QV-107" value="" style="endArrow=classic;html=1;rounded=0;exitX=0.995;exitY=0.095;exitDx=0;exitDy=0;exitPerimeter=0;fontFamily=Times New Roman;fontSize=14;" edge="1" parent="1">
          <mxGeometry width="50" height="50" relative="1" as="geometry">
            <mxPoint x="284" y="1075.9499999999998" as="sourcePoint" />
            <mxPoint x="284.04999999999995" y="1160.75" as="targetPoint" />
            <Array as="points">
              <mxPoint x="339.04999999999995" y="1075.75" />
              <mxPoint x="339.04999999999995" y="1160.75" />
            </Array>
          </mxGeometry>
        </mxCell>
        <mxCell id="ekgqlXPSo2zlpU3kf7QV-108" value="" style="endArrow=classic;html=1;rounded=0;fontFamily=Times New Roman;fontSize=14;entryX=1.087;entryY=0.088;entryDx=0;entryDy=0;entryPerimeter=0;exitX=-0.4;exitY=0.92;exitDx=0;exitDy=0;exitPerimeter=0;" edge="1" parent="1" source="ekgqlXPSo2zlpU3kf7QV-104" target="ekgqlXPSo2zlpU3kf7QV-111">
          <mxGeometry width="50" height="50" relative="1" as="geometry">
            <mxPoint x="270" y="1260" as="sourcePoint" />
            <mxPoint x="90" y="1160" as="targetPoint" />
          </mxGeometry>
        </mxCell>
        <mxCell id="ekgqlXPSo2zlpU3kf7QV-109" value="7. Giao diện cập nhật" style="text;html=1;strokeColor=none;fillColor=none;align=center;verticalAlign=middle;whiteSpace=wrap;rounded=0;fontFamily=Times New Roman;fontSize=14;" vertex="1" parent="1">
          <mxGeometry x="109" y="1247" width="150" height="10" as="geometry" />
        </mxCell>
        <mxCell id="ekgqlXPSo2zlpU3kf7QV-115" value="" style="endArrow=none;dashed=1;html=1;rounded=0;entryX=0.5;entryY=1;entryDx=0;entryDy=0;fontFamily=Times New Roman;fontSize=14;" edge="1" parent="1" target="ekgqlXPSo2zlpU3kf7QV-111">
          <mxGeometry width="50" height="50" relative="1" as="geometry">
            <mxPoint x="76" y="1350" as="sourcePoint" />
            <mxPoint x="80" y="300" as="targetPoint" />
          </mxGeometry>
        </mxCell>
        <mxCell id="ekgqlXPSo2zlpU3kf7QV-111" value="" style="rounded=0;whiteSpace=wrap;html=1;fontFamily=Times New Roman;fontSize=14;" vertex="1" parent="1">
          <mxGeometry x="70" y="1250" width="10" height="110" as="geometry" />
        </mxCell>
        <mxCell id="ekgqlXPSo2zlpU3kf7QV-116" value="" style="endArrow=classic;html=1;rounded=0;fontFamily=Times New Roman;fontSize=14;exitX=0.975;exitY=0.087;exitDx=0;exitDy=0;exitPerimeter=0;" edge="1" parent="1">
          <mxGeometry width="50" height="50" relative="1" as="geometry">
            <mxPoint x="83.87" y="1324.9" as="sourcePoint" />
            <mxPoint x="284.12" y="1324" as="targetPoint" />
          </mxGeometry>
        </mxCell>
        <mxCell id="ekgqlXPSo2zlpU3kf7QV-117" value="8. Thông tin cập nhật" style="text;html=1;strokeColor=none;fillColor=none;align=center;verticalAlign=middle;whiteSpace=wrap;rounded=0;fontFamily=Times New Roman;fontSize=14;" vertex="1" parent="1">
          <mxGeometry x="113.12" y="1310" width="150" height="10" as="geometry" />
        </mxCell>
      </root>
    </mxGraphModel>
  </diagram>
</mxfile>
